<!DOCTYPE svg PUBLIC "-//W3C//DTD SVG 20010904//EN" "http://www.w3.org/TR/2001/REC-SVG-20010904/DTD/svg10.dtd">
<svg version="1.0" xmlns="http://www.w3.org/2000/svg" width="750px" height="750px" viewBox="0 0 7500 7500" preserveAspectRatio="xMidYMid meet">
<g id="layer101" fill="#0e0d0c" stroke="none">
 <path d="M955 7488 c-9 -27 -93 -503 -89 -507 5 -5 156 -41 174 -41 8 0 30 30 50 68 52 101 165 211 265 259 70 33 90 38 173 41 71 3 103 0 137 -13 59 -22 95 -65 95 -115 0 -83 -63 -120 -353 -206 -190 -57 -323 -113 -387 -164 -90 -71 -142 -211 -122 -328 6 -35 22 -87 36 -115 l25 -50 -84 -98 c-390 -457 -660 -987 -805 -1579 -67 -275 -70 -310 -70 -891 0 -593 2 -614 82 -933 137 -549 401 -1067 764 -1500 511 -609 1203 -1042 1972 -1235 316 -79 339 -81 932 -81 489 0 536 2 651 21 443 75 908 249 1308 489 886 532 1498 1382 1732 2405 58 255 59 265 59 849 l0 539 -31 151 c-17 83 -44 202 -61 265 -133 514 -370 988 -699 1399 l-69 86 0 67 0 67 -64 7 c-107 11 -100 -19 -104 454 -2 223 0 425 3 448 7 51 22 61 105 70 l60 6 0 88 0 89 -335 0 -335 0 0 -89 0 -89 58 -6 c31 -4 64 -9 74 -12 32 -9 38 -61 38 -341 l0 -274 -54 42 -54 42 -97 331 c-54 182 -102 346 -107 364 l-9 32 -104 0 -104 0 -9 -33 c-5 -18 -31 -106 -57 -194 l-47 -161 -100 47 -99 46 5 34 c8 52 30 69 102 76 l64 7 0 89 0 89 -285 0 -285 0 0 -71 c0 -53 -3 -70 -12 -66 -7 2 -39 12 -70 21 l-58 17 0 49 0 50 -772 -1 c-425 0 -794 -4 -820 -8 -27 -4 -48 -4 -48 1 0 4 -47 8 -105 8 l-104 0 -9 -32 c-8 -33 -16 -37 -94 -52 l-38 -7 0 46 0 45 -285 0 -285 0 0 -89 0 -89 64 -7 c41 -5 71 -13 80 -24 16 -18 20 -16 -261 -138 -8 -3 -13 3 -13 16 0 11 -10 46 -22 78 -27 75 -127 177 -215 222 l-62 31 -235 0 -235 0 -74 -39 -75 -38 -15 38 -15 39 -82 0 c-56 0 -82 -4 -85 -12z"/>
 </g>
<g id="layer102" fill="#f28728" stroke="none">
 <path d="M3930 7395 l0 -75 -58 0 c-36 0 -66 -6 -80 -16 l-22 -15 0 -455 c0 -528 -7 -494 100 -494 l60 0 0 -95 0 -95 -311 2 -311 3 -121 413 c-67 226 -124 412 -127 412 -3 0 -57 -186 -121 -413 l-117 -412 -306 -3 -306 -2 0 95 0 95 63 0 c104 0 97 -30 97 448 0 227 -2 412 -5 412 -6 0 -186 -80 -247 -110 -43 -22 -47 -27 -61 -80 -8 -32 -30 -82 -50 -112 -68 -101 -154 -148 -440 -233 l-207 -62 -78 -70 c-42 -39 -78 -77 -80 -86 -5 -23 55 -84 95 -98 21 -7 69 -10 119 -7 71 4 94 10 159 42 86 43 179 130 230 215 17 28 36 51 43 51 29 0 162 -44 162 -54 0 -9 -59 -247 -101 -408 l-10 -38 -68 0 c-67 0 -69 1 -81 30 -7 17 -16 33 -20 35 -5 3 -30 -6 -57 -19 -85 -43 -160 -59 -268 -59 -144 0 -243 30 -351 104 l-42 29 -54 -63 c-335 -387 -579 -816 -739 -1299 -159 -483 -222 -1041 -169 -1503 59 -521 169 -905 381 -1327 178 -355 382 -640 663 -927 299 -304 590 -519 956 -705 404 -206 766 -319 1223 -381 323 -43 784 -33 1124 26 1046 180 2000 835 2539 1741 271 456 428 922 509 1508 26 184 27 210 22 475 -5 302 -12 365 -74 659 -128 616 -355 1111 -723 1580 l-75 95 -294 3 -293 3 -102 346 c-98 338 -102 347 -134 369 -19 12 -36 19 -39 16 -3 -3 -52 -169 -108 -368 l-103 -363 -306 -3 -306 -2 0 95 0 95 63 0 c104 0 97 -32 97 462 l0 426 -142 47 c-126 42 -152 48 -218 46 -46 -1 -84 -8 -97 -17 l-23 -14 0 -459 c0 -529 -8 -491 98 -491 l62 0 0 -95 0 -95 -330 0 -330 0 0 95 0 95 63 0 c104 0 97 -36 97 492 0 526 8 488 -98 488 l-62 0 0 69 0 68 -52 7 c-29 3 -65 6 -80 6 l-28 0 0 -75z m32 -1529 c159 -31 286 -96 405 -209 169 -161 253 -355 253 -587 0 -235 -85 -428 -259 -592 -43 -40 -99 -85 -125 -98 l-46 -25 0 -335 c-1 -184 -1 -450 -1 -590 l1 -254 222 -223 223 -223 477 0 478 0 0 -55 0 -55 -498 0 -497 0 -200 200 c-110 110 -202 200 -205 200 -3 0 -4 -235 -2 -522 1 -288 -2 -550 -7 -584 -18 -120 -86 -213 -191 -263 -50 -24 -66 -26 -185 -26 -116 0 -135 2 -177 23 -71 36 -134 96 -165 160 l-28 57 -3 960 -2 960 -288 288 -287 287 -477 0 -478 0 0 50 0 50 502 0 503 0 262 -262 263 -263 0 210 0 210 -57 35 c-127 78 -252 231 -313 383 -155 388 20 841 395 1022 165 80 336 104 507 71z m-1526 -1748 c7 -5 8 -25 1 -67 -9 -58 -10 -59 -34 -50 -69 26 -149 0 -197 -64 -26 -35 -27 -118 -3 -164 28 -53 61 -68 146 -68 l76 -1 12 -54 c6 -30 10 -56 8 -58 -2 -3 -44 -6 -93 -9 -124 -6 -186 13 -251 76 -63 61 -85 125 -79 225 8 123 67 201 178 237 29 10 220 7 236 -3z m374 -283 l0 -55 -140 0 -140 0 0 55 0 55 140 0 140 0 0 -55z m2099 -1446 c45 -9 50 -13 47 -32 -3 -12 -7 -38 -10 -57 l-6 -35 -69 3 c-117 6 -171 -41 -171 -148 0 -107 56 -155 171 -148 l67 4 7 -44 c4 -25 9 -50 12 -57 6 -18 -98 -39 -156 -31 -171 23 -271 129 -271 286 0 195 163 306 379 259z m461 -119 l0 -120 115 0 115 0 0 -50 0 -50 -115 0 -115 0 0 -120 0 -120 -50 0 -50 0 0 120 0 119 -117 3 c-115 3 -118 4 -121 27 -2 12 -1 34 2 47 6 24 8 24 121 24 l115 0 0 120 0 120 50 0 50 0 0 -120z"/>
 <path d="M3634 5751 c-237 -64 -422 -244 -496 -481 -19 -63 -23 -96 -23 -205 1 -115 4 -139 29 -210 63 -182 188 -330 348 -411 l48 -24 0 -298 0 -297 270 -270 270 -270 0 565 -1 565 53 29 c79 42 140 90 200 155 248 271 245 683 -8 951 -80 84 -165 141 -275 182 -75 28 -97 32 -214 35 -105 2 -144 -1 -201 -16z m282 -345 c231 -61 364 -298 295 -524 -91 -302 -468 -397 -690 -175 -131 132 -162 315 -81 480 87 177 288 269 476 219z"/>
 <path d="M3540 3527 l0 -147 120 0 120 0 0 -55 0 -55 -120 0 -120 0 0 -90 0 -89 118 -3 117 -3 3 -52 3 -53 -120 0 -121 0 -2 -42 c-1 -24 -1 -65 -1 -93 l1 -50 121 -3 121 -3 0 -49 0 -49 -121 -3 -121 -3 0 -90 0 -90 122 -3 121 -3 -3 -42 -3 -42 -109 -3 c-61 -1 -115 -7 -120 -11 -7 -6 -10 -44 -8 -100 l3 -91 120 0 119 0 0 -45 c0 -53 -1 -54 -140 -58 l-95 -2 -3 -107 c-3 -119 9 -157 65 -210 47 -45 92 -58 203 -58 115 0 174 20 215 74 57 74 55 54 55 718 l0 613 -270 270 -270 270 0 -148z"/>
 <path d="M3204 7425 l-70 -10 150 -512 c83 -282 153 -513 156 -513 3 0 4 201 2 447 -2 441 -3 448 -23 466 -15 12 -39 17 -80 17 l-58 0 -3 58 -3 57 -71 -10z"/>
 <path d="M2795 7341 c-33 -11 -89 -27 -125 -38 l-65 -19 -2 -435 -2 -434 133 450 c73 248 136 461 140 473 9 27 1 27 -79 3z"/>
 <path d="M5301 6773 l0 -358 89 300 c49 165 90 306 90 312 0 7 -40 33 -90 58 l-90 45 1 -357z"/>
 <path d="M6094 6529 c23 -76 45 -139 50 -139 4 0 6 10 2 23 -3 12 -6 59 -6 103 l0 82 -43 35 -44 35 41 -139z"/>
 </g>
<g id="layer103" fill="#f2ae31" stroke="none">
 <path d="M3930 7395 l0 -75 -58 0 c-36 0 -66 -6 -80 -16 l-22 -15 0 -453 0 -453 23 -21 c18 -17 36 -22 80 -22 l57 0 0 -95 0 -95 -312 2 -311 3 -28 95 c-15 52 -50 172 -77 265 -27 94 -69 236 -93 318 -23 81 -45 147 -48 147 -4 0 -25 -69 -49 -153 -23 -83 -76 -269 -116 -412 l-73 -260 -307 -3 -306 -2 0 95 0 95 63 0 c104 0 97 -30 97 448 0 227 -2 412 -5 412 -6 0 -186 -80 -247 -110 -44 -22 -48 -27 -58 -75 -6 -28 -28 -78 -50 -111 -70 -108 -164 -158 -445 -240 l-200 -58 -80 -71 c-44 -40 -81 -79 -83 -87 -2 -9 11 -32 27 -51 40 -45 98 -61 196 -55 140 9 278 103 376 253 l40 62 88 -25 88 -25 -59 -226 c-32 -124 -58 -227 -58 -228 0 -2 -31 -3 -69 -3 -67 0 -69 1 -81 30 -7 17 -16 33 -20 35 -5 3 -34 -8 -67 -24 -83 -41 -154 -56 -263 -55 -138 1 -264 40 -356 111 l-31 23 -55 -62 c-335 -388 -579 -817 -739 -1300 -159 -483 -222 -1041 -169 -1503 59 -521 169 -905 381 -1327 178 -355 382 -640 663 -927 299 -304 590 -519 956 -705 404 -206 766 -319 1223 -381 323 -43 784 -33 1124 26 1046 180 2000 835 2539 1741 271 456 428 922 509 1508 26 184 27 210 22 475 -5 302 -12 365 -74 659 -128 616 -355 1111 -723 1580 l-75 95 -294 3 -294 3 -28 95 c-15 52 -53 183 -84 290 -32 107 -65 220 -73 251 -12 44 -23 60 -50 78 -18 12 -36 20 -39 18 -3 -3 -34 -108 -69 -234 -36 -125 -82 -289 -103 -363 l-39 -135 -306 -3 -306 -2 0 95 0 95 63 0 c104 0 97 -32 97 462 l0 426 -142 47 c-126 42 -152 48 -218 46 -46 -1 -84 -8 -97 -17 l-23 -14 0 -460 0 -459 22 -15 c14 -10 44 -16 80 -16 l58 0 0 -95 0 -95 -330 0 -330 0 0 95 0 95 58 0 c36 0 66 6 80 16 l22 15 0 458 c0 529 8 491 -98 491 l-62 0 0 69 0 68 -52 7 c-29 3 -65 6 -80 6 l-28 0 0 -75z m-153 -1410 c527 -65 919 -333 1013 -690 25 -98 41 -333 21 -320 -10 6 -11 2 -6 -15 5 -15 4 -20 -4 -16 -15 10 -14 -7 2 -23 6 -7 8 -12 2 -11 -5 2 -12 1 -15 0 -20 -7 -41 -7 -46 2 -4 7 -9 7 -13 0 -4 -6 -11 -4 -19 4 -7 8 -8 14 -2 14 5 0 10 4 10 8 0 5 -6 9 -14 9 -14 0 -16 -14 -4 -32 4 -6 -2 -12 -13 -12 -11 -1 -17 2 -14 8 4 5 -1 10 -9 10 -9 1 -23 2 -32 3 -13 1 -22 -16 -35 -64 -9 -35 -16 -67 -13 -71 2 -4 -3 -12 -11 -19 -8 -7 -12 -16 -10 -21 6 -8 43 -4 54 7 3 3 -1 4 -9 2 -9 -1 -15 2 -15 7 0 6 4 9 10 7 5 -2 4 2 -2 9 -9 9 -10 16 -2 26 14 16 29 17 29 2 0 -5 -4 -8 -9 -4 -5 3 -12 1 -15 -4 -3 -5 8 -11 24 -13 22 -3 27 -1 20 7 -5 7 -7 15 -3 18 12 12 23 7 23 -10 0 -14 2 -15 18 -1 21 19 49 19 49 1 0 -9 -4 -10 -12 -3 -9 7 -16 6 -24 -4 -10 -12 -9 -14 8 -9 15 4 19 0 17 -14 -2 -10 -8 -18 -14 -18 -6 0 -13 -3 -17 -7 -6 -5 19 -4 35 2 3 1 9 2 14 1 5 -1 4 4 -2 12 -12 14 -7 27 10 27 5 0 7 -4 4 -9 -3 -5 2 -15 12 -22 15 -13 16 -12 4 3 -9 12 -10 18 -2 23 24 15 23 -11 -4 -118 -24 -98 -105 -324 -126 -352 -4 -5 -23 -46 -41 -90 -18 -44 -37 -83 -43 -87 -6 -4 -7 -8 -3 -8 5 0 5 -6 0 -12 -4 -7 -9 -24 -11 -38 -2 -14 -7 -26 -12 -28 -4 -2 -6 -12 -3 -23 3 -10 0 -26 -6 -33 -7 -8 -13 -28 -13 -45 -1 -36 12 -33 -172 -35 -131 -1 -139 -2 -142 -21 -2 -11 -4 -177 -4 -370 l-2 -350 227 -222 227 -223 474 0 474 0 0 -55 0 -55 -497 0 -498 0 -202 202 -203 203 0 -530 c0 -292 -4 -555 -9 -586 -19 -117 -88 -209 -191 -258 -50 -24 -66 -26 -186 -26 -145 0 -181 11 -264 82 -26 23 -40 30 -40 20 0 -22 -22 -27 -122 -27 l-91 0 7 50 c10 77 8 75 86 72 45 -2 70 0 70 7 0 15 -45 24 -91 18 -21 -3 -39 -3 -39 -1 0 11 42 92 60 114 19 25 19 25 35 5 15 -18 16 41 9 735 -4 415 -6 760 -5 765 1 6 4 80 7 165 l5 155 -120 120 c-108 107 -121 117 -121 93 0 -15 -4 -29 -9 -32 -5 -3 -7 -15 -4 -26 3 -11 0 -20 -6 -20 -6 0 -12 10 -12 23 -1 17 -2 18 -6 4 -3 -10 0 -24 6 -31 8 -9 8 -21 2 -37 -6 -15 -10 -18 -10 -8 -1 11 -8 15 -24 12 -14 -3 -29 2 -38 13 -8 10 -9 15 -2 11 6 -4 14 -3 18 3 7 11 -28 14 -38 3 -4 -3 1 -16 10 -27 18 -21 18 -21 -4 -2 -13 10 -20 23 -17 27 6 10 -10 12 -19 2 -4 -3 1 -16 10 -27 18 -21 18 -21 -4 -2 -13 10 -20 23 -17 27 6 10 -10 12 -19 2 -4 -3 1 -16 10 -27 18 -21 18 -21 -4 -2 -13 10 -20 23 -17 27 3 5 -2 9 -11 9 -9 0 -14 -4 -10 -9 3 -5 0 -13 -6 -17 -7 -4 -9 -3 -5 4 3 6 2 13 -3 16 -5 4 -13 1 -16 -5 -4 -5 -14 -8 -22 -5 -8 4 -11 1 -8 -5 4 -6 13 -8 21 -5 8 3 11 0 8 -8 -5 -12 -34 -19 -32 -7 0 3 -1 9 -2 14 -1 4 -3 10 -4 15 -1 4 -7 17 -14 30 -7 12 -10 27 -7 32 3 6 0 10 -7 10 -9 0 -9 3 2 10 13 8 12 10 -3 10 -9 0 -16 3 -15 8 3 13 -14 62 -21 62 -4 0 -15 17 -25 38 -10 20 -47 85 -83 145 l-65 107 -384 0 -384 0 0 50 0 50 358 0 c197 0 361 2 364 5 3 3 -5 45 -18 93 -27 103 -44 231 -32 238 5 4 16 -2 24 -12 9 -11 13 -13 9 -6 -4 7 0 12 10 12 9 0 14 4 11 8 -2 4 0 14 5 22 7 12 8 11 6 -5 -1 -11 -6 -25 -9 -31 -4 -6 -1 -11 7 -11 8 0 12 4 9 9 -3 4 0 8 6 8 6 0 9 4 5 9 -3 5 -1 12 4 16 6 3 8 -6 6 -22 -2 -16 -2 -22 1 -15 3 6 10 12 15 12 6 0 7 -5 3 -12 -4 -7 -3 -8 5 -4 9 6 9 11 1 21 -8 10 -8 15 1 21 8 4 9 3 5 -4 -4 -7 -3 -12 3 -12 5 0 13 5 16 10 3 6 15 10 26 10 11 0 17 -5 14 -10 -3 -6 0 -12 7 -15 8 -3 14 -15 15 -25 1 -13 -2 -18 -9 -14 -7 4 -8 2 -4 -5 10 -16 29 -3 22 15 -8 21 21 29 41 13 14 -12 16 -12 8 0 -6 11 -4 13 9 8 14 -6 16 -3 11 16 -6 21 -5 21 7 2 7 -11 14 -28 15 -39 3 -15 1 -16 -11 -7 -11 9 -16 9 -22 -1 -4 -7 -4 -10 1 -6 4 4 14 3 22 -3 13 -11 15 -9 17 21 1 11 13 15 44 14 42 0 53 8 30 22 -6 4 -14 2 -16 -4 -2 -7 -8 -12 -14 -12 -6 0 -6 6 2 15 13 15 51 21 49 8 -1 -5 -1 -10 1 -13 1 -3 3 -16 6 -29 4 -20 2 -22 -10 -12 -11 9 -16 9 -22 0 -4 -7 -3 -9 4 -5 6 3 13 2 17 -4 11 -18 25 0 21 25 -4 19 -1 23 12 18 9 -3 24 -11 32 -17 13 -10 13 -9 1 7 -7 9 -11 17 -8 17 3 0 1 17 -4 38 -5 20 -11 45 -14 55 -2 9 -6 20 -8 25 -3 4 -90 7 -194 6 -153 0 -187 -3 -185 -14 3 -11 0 -11 -12 0 -13 10 -16 10 -16 -1 0 -11 -2 -11 -9 1 -13 19 -3 34 14 20 7 -6 16 -7 18 -3 3 5 91 9 196 8 105 0 191 3 191 8 0 5 -99 7 -220 6 -121 -1 -222 0 -225 2 -10 11 27 219 56 314 47 156 158 344 265 451 176 175 361 255 639 273 61 5 115 9 120 9 6 1 65 -5 132 -13z m-1210 -1132 c-2 -16 -4 -5 -4 22 0 28 2 40 4 28 2 -13 2 -35 0 -50z m2419 -391 c19 -40 37 -85 38 -100 l4 -27 -107 2 c-58 1 -107 2 -108 2 -5 2 57 161 78 202 l21 43 20 -25 c11 -13 35 -57 54 -97z m71 -207 c7 -27 15 -75 17 -106 l3 -55 -148 0 c-81 1 -150 4 -154 8 -4 4 -4 12 0 19 4 6 9 39 10 73 2 33 6 74 10 89 l7 28 121 -3 121 -3 13 -50z m-2621 -137 c7 -5 8 -25 1 -67 -9 -58 -10 -59 -34 -50 -69 26 -149 0 -197 -64 -26 -35 -27 -118 -3 -164 28 -53 61 -68 146 -68 l76 -1 12 -54 c6 -30 10 -56 8 -58 -2 -3 -44 -6 -93 -9 -124 -6 -186 13 -251 76 -63 61 -85 125 -79 225 8 123 67 201 178 237 29 10 220 7 236 -3z m2079 -225 c0 -6 3 -15 8 -19 4 -4 7 -14 6 -23 0 -10 -3 -8 -9 6 -6 14 -15 21 -24 17 -8 -3 -17 0 -22 7 -4 8 -3 10 4 5 18 -11 37 4 21 16 -11 8 -11 9 1 5 8 -2 15 -9 15 -14z m-1705 -58 l0 -55 -140 0 -140 0 0 55 0 55 140 0 140 0 0 -55z m137 -192 c-2 -16 -4 -5 -4 22 0 28 2 40 4 28 2 -13 2 -35 0 -50z m223 -123 c0 -5 5 -55 11 -110 16 -151 21 -145 -106 -145 -58 0 -105 1 -105 2 0 11 91 148 132 199 49 61 68 76 68 54z m17 -380 c-5 -61 -13 -99 -24 -117 -10 -15 -12 -24 -5 -20 6 5 12 4 12 -1 0 -16 -13 -22 -27 -11 -7 6 -13 8 -13 3 0 -5 -58 -9 -129 -9 -71 0 -127 3 -125 7 2 3 -1 8 -7 10 -8 3 4 42 31 111 l43 106 116 4 c64 1 120 4 125 5 5 1 6 -36 3 -88z m1722 -751 c45 -9 50 -13 47 -32 -3 -12 -7 -38 -10 -57 l-6 -35 -69 3 c-117 6 -171 -41 -171 -148 0 -107 56 -155 171 -148 l67 4 7 -44 c4 -25 9 -50 12 -57 6 -18 -98 -39 -156 -31 -171 23 -271 129 -271 286 0 195 163 306 379 259z m461 -119 l0 -120 115 0 115 0 0 -50 0 -50 -115 0 -115 0 0 -120 0 -120 -50 0 -50 0 0 120 0 119 -117 3 c-115 3 -118 4 -121 27 -2 12 -1 34 2 47 6 24 8 24 121 24 l115 0 0 120 0 120 50 0 50 0 0 -120z m-977 -267 c3 -5 8 -21 11 -38 6 -29 5 -30 -29 -29 -48 1 -51 8 -24 43 25 31 35 36 42 24z m21 -106 c10 -38 -10 -57 -62 -57 -67 0 -77 9 -57 51 16 33 18 34 65 31 39 -3 49 -8 54 -25z"/>
 <path d="M3050 5529 c0 -15 -2 -42 -5 -60 -4 -29 -3 -30 4 -9 5 14 9 20 10 14 2 -20 48 -3 60 22 11 25 12 24 -37 28 -7 1 -17 8 -22 16 -8 12 -10 9 -10 -11z"/>
 <path d="M3260 5498 l-20 -28 560 -2 c367 -2 561 0 563 7 2 6 0 19 -5 30 -9 20 -19 20 -543 20 l-535 0 -20 -27z"/>
 <path d="M3190 5105 c0 -21 -5 -25 -30 -25 -40 0 -50 -37 -21 -79 12 -16 21 -32 21 -36 0 -8 66 -71 83 -79 7 -3 23 -14 37 -23 l25 -18 -22 30 c-34 49 -74 147 -67 167 3 10 0 18 -7 18 -8 0 -10 11 -6 35 3 19 2 35 -4 35 -5 0 -9 -11 -9 -25z"/>
 <path d="M4234 4996 c0 -47 4 -83 8 -80 5 3 5 10 2 16 -4 6 2 8 17 4 21 -6 22 -6 7 7 -15 12 -14 17 13 67 31 58 28 70 -21 70 -25 0 -25 -1 -26 -84z"/>
 <path d="M4291 4945 c11 -11 209 -14 209 -3 0 4 -49 8 -110 10 -73 2 -106 0 -99 -7z"/>
 <path d="M4754 4947 c-5 -13 -9 -15 -14 -7 -5 8 -9 7 -13 -4 -4 -9 -3 -15 1 -15 4 1 9 0 12 -1 39 -15 56 -2 35 26 -13 18 -14 18 -21 1z"/>
 <path d="M3125 4940 c4 -6 10 -8 15 -5 5 3 12 1 15 -5 4 -6 1 -9 -7 -8 -9 2 -12 -6 -11 -24 2 -39 27 -84 43 -80 11 3 11 0 0 -13 -11 -14 -11 -16 1 -13 9 2 14 -6 13 -24 0 -15 4 -24 8 -22 5 3 6 16 4 29 -4 19 -1 23 12 18 9 -3 23 -11 31 -17 12 -9 13 -8 6 3 -6 11 -4 13 9 8 14 -6 16 -3 10 16 l-6 22 24 -23 25 -22 26 20 c15 12 31 19 36 16 5 -4 11 -3 14 1 2 5 3 3 1 -4 -1 -6 0 -14 4 -17 3 -4 7 -16 9 -28 3 -17 1 -19 -11 -9 -11 9 -16 9 -22 0 -4 -7 -3 -9 4 -5 6 3 13 2 17 -4 13 -21 24 2 20 43 -3 28 -1 37 5 27 5 -8 6 -18 4 -22 -3 -4 -1 -8 5 -8 5 0 8 -9 6 -20 -2 -11 0 -18 6 -15 5 4 9 1 9 -6 0 -7 3 -10 6 -6 3 3 2 12 -2 19 -5 7 -10 18 -11 23 -2 6 -15 45 -29 88 l-27 77 -64 0 -64 0 17 -32 c9 -18 23 -41 32 -50 13 -16 13 -18 0 -23 -15 -6 -77 31 -132 79 -28 25 -63 36 -51 16z m259 -10 c2 -3 -17 -5 -44 -5 -26 0 -51 3 -55 6 -3 4 16 6 44 5 27 0 52 -3 55 -6z"/>
 <path d="M4624 4941 c3 -5 15 -7 26 -4 28 7 25 13 -6 13 -14 0 -23 -4 -20 -9z"/>
 <path d="M4283 4922 c-22 -2 -33 -9 -33 -18 0 -9 -6 -14 -12 -11 -8 2 -20 -13 -29 -37 -15 -39 -15 -42 4 -63 11 -13 18 -26 15 -29 -4 -3 -11 4 -18 15 -12 24 -27 28 -27 7 0 -8 3 -14 6 -13 3 1 7 -2 9 -8 3 -13 -21 -13 -31 0 -5 6 -7 4 -4 -5 4 -15 24 -21 42 -11 10 6 17 8 36 10 5 0 7 5 4 11 -16 25 65 60 92 38 8 -6 15 -3 22 9 6 10 11 13 11 8 0 -20 -23 -35 -35 -25 -9 7 -16 6 -24 -4 -10 -12 -8 -13 10 -9 17 5 20 3 14 -8 -6 -11 -5 -12 6 -1 22 20 34 14 14 -8 -10 -11 -16 -20 -14 -21 2 0 11 -2 20 -4 9 -1 23 1 30 6 11 8 11 9 -3 7 -9 -2 -17 2 -16 7 0 6 5 9 11 7 7 -2 7 1 0 10 -8 10 -8 18 3 32 12 17 14 18 20 2 5 -14 9 -14 23 -4 14 12 15 11 2 -5 -10 -13 -17 -14 -26 -7 -9 8 -15 8 -20 0 -3 -5 1 -10 10 -10 10 0 14 -5 9 -12 -6 -10 -4 -10 7 0 21 19 34 14 15 -7 -10 -11 -13 -21 -7 -25 5 -4 12 -2 16 4 3 5 3 10 -1 10 -3 0 -1 7 6 15 7 8 9 15 5 15 -5 0 -1 8 7 18 19 21 44 99 35 109 -7 7 -149 10 -204 5z m-46 -104 c-2 -13 -4 -3 -4 22 0 25 2 35 4 23 2 -13 2 -33 0 -45z"/>
 <path d="M3361 4796 c-9 -11 -9 -16 0 -22 8 -5 9 -3 4 6 -6 10 -4 12 8 7 10 -3 17 -2 17 3 0 16 -18 20 -29 6z"/>
 <path d="M3515 4625 c-8 -73 1 -173 18 -194 6 -7 13 -25 15 -39 5 -36 64 -106 102 -122 17 -7 33 -10 36 -7 3 3 -4 23 -15 46 -24 46 -37 118 -27 155 3 13 18 38 32 55 22 26 33 31 70 31 56 0 102 -39 141 -118 26 -53 28 -65 28 -182 0 -86 -5 -144 -17 -185 -22 -79 -79 -237 -84 -232 -2 2 3 23 11 47 19 53 19 55 0 40 -8 -7 -12 -17 -8 -23 3 -6 1 -7 -6 -3 -6 4 -9 12 -6 17 4 5 -43 9 -115 9 -94 0 -120 -3 -114 -12 5 -9 2 -9 -9 1 -20 16 -23 36 -4 25 8 -5 8 -2 -2 9 -7 9 -14 17 -15 17 -1 0 -2 -29 -1 -64 l0 -64 269 -272 269 -273 -6 294 c-4 162 -8 303 -10 314 -3 17 -12 20 -63 20 -41 -1 -58 -5 -57 -13 2 -7 -4 -12 -13 -12 -11 0 -9 8 12 35 30 40 40 45 24 13 -11 -22 -10 -22 4 -4 9 10 13 23 10 28 -3 5 5 23 19 41 66 87 72 110 72 269 l0 148 28 11 c27 11 29 15 23 53 -6 37 -41 122 -64 154 -7 10 -23 6 -75 -19 -127 -59 -297 -47 -403 29 -21 15 -44 31 -51 35 -8 5 -13 -12 -18 -58z m355 -800 c-24 -25 -46 -45 -49 -45 -3 0 15 20 39 45 24 25 46 45 49 45 3 0 -15 -20 -39 -45z"/>
 <path d="M3215 4356 c-32 -35 -45 -71 -45 -130 0 -27 18 -50 130 -161 l130 -130 0 196 c0 190 -1 196 -22 216 -36 33 -63 43 -114 43 -40 0 -51 -5 -79 -34z"/>
 <path d="M3116 3961 c-3 -5 1 -14 9 -21 11 -9 14 -8 12 9 -1 22 -12 28 -21 12z"/>
 <path d="M3125 3910 c-4 -6 -4 -14 0 -18 4 -4 10 -1 13 7 4 11 6 11 14 0 8 -12 9 -12 6 0 -5 19 -24 25 -33 11z"/>
 <path d="M3540 3522 l0 -142 120 0 120 0 0 -55 0 -55 -120 0 -120 0 0 -90 0 -90 120 0 120 0 0 -54 0 -53 -115 -5 c-63 -2 -117 -6 -119 -9 -3 -2 -6 -42 -7 -89 l-2 -85 121 -3 122 -3 0 -49 0 -49 -121 -3 -121 -3 0 -90 0 -90 122 -3 121 -3 -3 -42 -3 -42 -109 -3 c-61 -1 -115 -7 -120 -11 -7 -6 -10 -44 -8 -100 l3 -91 120 0 119 0 0 -45 c0 -53 -1 -54 -140 -58 l-95 -2 -3 -107 c-2 -90 0 -113 17 -145 45 -89 115 -123 251 -123 139 0 199 31 246 126 l27 56 -6 611 -7 611 -265 266 -265 265 0 -143z"/>
 <path d="M3204 7426 l-70 -8 150 -514 c83 -283 153 -514 156 -514 3 0 4 201 2 447 -2 441 -3 448 -23 466 -15 12 -39 17 -80 17 l-58 0 -3 58 -3 57 -71 -9z"/>
 <path d="M2795 7341 c-33 -11 -89 -27 -125 -38 l-65 -19 -3 -429 c-1 -236 0 -427 2 -424 2 2 63 206 136 452 72 247 134 455 137 463 7 18 -9 17 -82 -5z"/>
 <path d="M5300 6778 c0 -193 2 -349 4 -347 5 5 176 587 176 599 0 5 -40 30 -90 55 l-90 45 0 -352z"/>
 <path d="M6062 6645 c36 -136 75 -255 82 -255 4 0 6 10 2 23 -3 12 -6 59 -6 104 l0 81 -42 33 c-34 28 -41 30 -36 14z"/>
 </g>
<g id="layer104" fill="#f1d23b" stroke="none">
 <path d="M3930 7395 l0 -75 -58 0 c-36 0 -66 -6 -80 -16 l-22 -15 0 -453 0 -453 23 -21 c18 -17 36 -22 80 -22 l57 0 0 -95 0 -95 -312 2 -311 3 -28 95 c-15 52 -50 172 -77 265 -27 94 -69 236 -93 318 -23 81 -45 147 -48 147 -4 0 -25 -69 -49 -153 -23 -83 -76 -269 -116 -412 l-73 -260 -307 -3 -306 -2 0 95 0 95 63 0 c104 0 97 -30 97 448 0 227 -2 412 -5 412 -6 0 -186 -80 -247 -110 -44 -22 -48 -27 -58 -75 -6 -28 -28 -78 -50 -111 -70 -108 -164 -158 -445 -240 l-200 -58 -80 -71 c-44 -40 -81 -79 -83 -87 -2 -9 11 -32 27 -51 40 -45 98 -61 196 -55 140 9 278 103 376 253 l40 62 88 -25 88 -25 -59 -226 c-32 -124 -58 -227 -58 -228 0 -2 -31 -3 -69 -3 -67 0 -69 1 -81 30 -7 17 -16 33 -20 35 -5 3 -34 -8 -67 -24 -83 -41 -154 -56 -263 -55 -138 1 -264 40 -356 111 l-31 23 -55 -62 c-335 -388 -579 -817 -739 -1300 -159 -483 -222 -1041 -169 -1503 59 -521 169 -905 381 -1327 178 -355 382 -640 663 -927 299 -304 590 -519 956 -705 404 -206 766 -319 1223 -381 323 -43 784 -33 1124 26 1046 180 2000 835 2539 1741 271 456 428 922 509 1508 26 184 27 210 22 475 -5 302 -12 365 -74 659 -128 616 -355 1111 -723 1580 l-75 95 -294 3 -294 3 -28 95 c-15 52 -53 183 -84 290 -32 107 -65 220 -73 251 -12 44 -23 60 -50 78 -18 12 -36 20 -39 18 -3 -3 -34 -108 -69 -234 -36 -125 -82 -289 -103 -363 l-39 -135 -306 -3 -306 -2 0 95 0 95 63 0 c104 0 97 -32 97 462 l0 426 -142 47 c-126 42 -152 48 -218 46 -46 -1 -84 -8 -97 -17 l-23 -14 0 -460 0 -459 22 -15 c14 -10 44 -16 80 -16 l58 0 0 -95 0 -95 -330 0 -330 0 0 95 0 95 58 0 c36 0 66 6 80 16 l22 15 0 458 c0 529 8 491 -98 491 l-62 0 0 69 0 68 -52 7 c-29 3 -65 6 -80 6 l-28 0 0 -75z m-153 -1410 c527 -65 919 -333 1013 -690 25 -98 41 -333 21 -320 -10 6 -11 2 -6 -15 5 -15 4 -20 -4 -16 -15 10 -14 -7 2 -23 6 -7 8 -12 2 -11 -5 2 -12 1 -15 0 -20 -7 -41 -7 -46 2 -4 7 -9 7 -13 0 -4 -6 -11 -4 -19 4 -7 8 -8 14 -2 14 5 0 10 4 10 8 0 5 -6 9 -14 9 -14 0 -16 -14 -4 -32 4 -6 -2 -12 -13 -12 -11 -1 -17 2 -14 8 4 5 -1 10 -9 10 -9 1 -23 2 -32 3 -13 1 -22 -16 -35 -64 -9 -35 -16 -67 -13 -71 2 -4 -3 -12 -11 -19 -8 -7 -12 -16 -10 -21 6 -8 43 -4 54 7 3 3 -1 4 -9 2 -9 -1 -15 2 -15 7 0 6 4 9 10 7 5 -2 4 2 -2 9 -9 9 -10 16 -2 26 14 16 29 17 29 2 0 -5 -4 -8 -9 -4 -5 3 -12 1 -15 -4 -3 -5 8 -11 24 -13 22 -3 27 -1 20 7 -5 7 -7 15 -3 18 12 12 23 7 23 -10 0 -14 2 -15 18 -1 21 19 49 19 49 1 0 -9 -4 -10 -12 -3 -9 7 -16 6 -24 -4 -10 -12 -9 -14 8 -9 15 4 19 0 17 -14 -2 -10 -8 -18 -14 -18 -6 0 -13 -3 -17 -7 -6 -5 19 -4 35 2 3 1 9 2 14 1 5 -1 4 4 -2 12 -12 14 -7 27 10 27 5 0 7 -4 4 -9 -3 -5 2 -15 12 -22 15 -13 16 -12 4 3 -9 12 -10 18 -2 23 24 15 23 -11 -4 -118 -27 -110 -76 -241 -175 -466 -27 -63 -55 -145 -62 -184 -23 -126 11 -270 117 -498 63 -138 77 -170 79 -184 1 -5 7 -23 14 -39 42 -103 52 -378 17 -475 -9 -24 -16 -54 -16 -67 l0 -24 425 0 425 0 0 -55 0 -55 -500 0 -500 0 -197 201 c-224 228 -223 228 -180 55 16 -61 21 -98 15 -102 -6 -4 -6 -9 2 -14 8 -5 9 -16 5 -30 -6 -18 -9 -20 -16 -9 -7 12 -9 11 -9 -1 0 -13 -1 -13 -10 0 -6 9 -9 -126 -10 -371 0 -406 -5 -467 -40 -542 -99 -211 -419 -263 -610 -99 l-43 36 6 -34 c3 -19 1 -68 -5 -108 l-10 -72 -89 0 c-88 0 -89 0 -96 27 -10 35 -10 210 -1 243 7 24 10 25 78 22 45 -2 70 0 70 7 0 15 -45 24 -91 18 -21 -3 -39 -3 -39 -1 0 11 42 92 60 114 19 25 19 25 35 5 15 -18 15 11 9 360 -3 214 -10 387 -16 395 -7 12 -8 11 -4 -5 5 -15 1 -13 -15 8 -16 21 -29 27 -60 27 l-38 0 5 83 c9 138 33 283 85 498 45 189 49 215 49 330 l0 124 -120 120 c-88 88 -120 114 -120 99 0 -99 -119 -338 -234 -469 l-35 -40 11 40 c6 23 8 90 6 160 -4 95 -11 136 -32 200 -38 112 -95 229 -172 356 l-66 109 -384 0 -384 0 0 50 0 50 358 0 c197 0 361 2 364 5 3 3 -5 44 -18 91 -27 101 -44 233 -32 241 5 3 16 -3 24 -13 9 -11 13 -13 9 -6 -4 7 0 12 10 12 9 0 14 4 11 8 -2 4 0 14 5 22 7 12 8 11 6 -5 -1 -11 -6 -25 -9 -31 -4 -6 -1 -11 7 -11 8 0 12 4 9 9 -3 4 0 8 6 8 6 0 9 4 5 9 -3 5 -1 12 4 16 6 3 8 -6 6 -22 -2 -16 -2 -22 1 -15 3 6 10 12 15 12 6 0 7 -5 3 -12 -4 -7 -3 -8 5 -4 9 6 9 11 1 21 -8 10 -8 15 1 21 8 4 9 3 5 -4 -4 -7 -3 -12 3 -12 5 0 13 5 16 10 3 6 15 10 26 10 11 0 17 -5 14 -10 -3 -6 0 -12 7 -15 8 -3 14 -15 15 -25 1 -13 -2 -18 -9 -14 -7 4 -8 2 -4 -5 10 -16 29 -3 22 15 -8 21 21 29 41 13 14 -12 16 -12 8 0 -6 11 -4 13 9 8 14 -6 16 -3 11 16 -6 21 -5 21 7 2 7 -11 14 -28 15 -39 3 -15 1 -16 -11 -7 -11 9 -16 9 -22 -1 -4 -7 -4 -10 1 -6 4 4 14 3 22 -3 13 -11 15 -9 17 21 1 11 13 15 44 14 42 0 53 8 30 22 -6 4 -14 2 -16 -4 -2 -7 -8 -12 -14 -12 -6 0 -6 6 2 15 13 15 51 21 49 8 -1 -5 -1 -10 1 -13 1 -3 3 -16 6 -29 4 -20 2 -22 -10 -12 -11 9 -16 9 -22 0 -4 -7 -3 -9 4 -5 6 3 13 2 17 -4 11 -18 25 0 21 25 -4 19 -1 23 12 18 9 -3 24 -11 32 -17 13 -10 13 -9 1 7 -7 9 -11 17 -8 17 3 0 1 17 -4 38 -5 20 -11 45 -14 55 -2 9 -6 20 -8 25 -3 4 -90 7 -194 6 -153 0 -187 -3 -185 -14 3 -11 0 -11 -12 0 -13 10 -16 10 -16 -1 0 -11 -2 -11 -9 1 -13 19 -3 34 14 20 7 -6 16 -7 18 -3 3 5 91 9 196 8 105 0 191 3 191 8 0 5 -99 7 -220 6 -121 -1 -222 0 -225 2 -10 11 27 219 56 314 47 156 158 344 265 451 176 175 361 255 639 273 61 5 115 9 120 9 6 1 65 -5 132 -13z m-1210 -1132 c-2 -16 -4 -5 -4 22 0 28 2 40 4 28 2 -13 2 -35 0 -50z m2419 -391 c19 -40 37 -85 38 -100 l4 -27 -107 2 c-58 1 -107 2 -108 2 -5 2 57 161 78 202 l21 43 20 -25 c11 -13 35 -57 54 -97z m77 -232 c15 -62 17 -101 13 -229 -3 -85 -9 -158 -15 -164 -5 -5 -23 -10 -40 -11 -17 0 -31 -5 -31 -11 0 -7 -3 -7 -8 0 -11 16 -34 17 -43 3 -7 -10 -9 -10 -9 1 0 11 -4 9 -15 -5 -11 -14 -14 -15 -9 -3 4 14 -2 17 -46 15 -47 -1 -51 1 -56 24 -3 14 -9 34 -14 46 -16 41 -22 171 -11 268 19 162 3 147 144 144 l122 -3 18 -75z m-2627 -112 c7 -5 8 -25 1 -67 -9 -58 -10 -59 -34 -50 -69 26 -149 0 -197 -64 -26 -35 -27 -118 -3 -164 28 -53 61 -68 146 -68 l76 -1 12 -54 c6 -30 10 -56 8 -58 -2 -3 -44 -6 -93 -9 -124 -6 -186 13 -251 76 -63 61 -85 125 -79 225 8 123 67 201 178 237 29 10 220 7 236 -3z m374 -283 l0 -55 -140 0 -140 0 0 55 0 55 140 0 140 0 0 -55z m360 -315 c0 -5 5 -55 11 -110 16 -151 21 -145 -106 -145 -58 0 -105 1 -105 2 0 11 91 148 132 199 49 61 68 76 68 54z m20 -342 c-1 -115 -40 -266 -105 -403 -18 -38 -36 -79 -40 -90 -5 -14 -9 -16 -12 -6 -5 11 -7 11 -15 0 -7 -11 -11 -11 -15 -1 -2 6 -9 12 -14 12 -6 0 -7 -4 -4 -10 3 -5 1 -10 -4 -10 -6 0 -11 5 -11 10 0 6 -5 10 -11 10 -5 0 -7 -4 -4 -10 3 -5 2 -10 -4 -10 -5 0 -12 6 -15 13 -5 10 -7 10 -12 0 -3 -7 -10 -13 -15 -13 -6 0 -7 5 -4 10 3 6 1 10 -4 10 -6 0 -11 -4 -11 -10 0 -5 -5 -10 -11 -10 -5 0 -7 5 -4 10 3 6 1 10 -4 10 -6 0 -11 -4 -11 -10 0 -5 -10 -10 -21 -10 -21 0 -22 3 -16 103 7 126 26 212 79 344 l41 102 116 4 c64 1 119 4 124 5 4 1 7 -22 7 -50z m158 -445 c-10 -2 -26 -2 -35 0 -10 3 -2 5 17 5 19 0 27 -2 18 -5z m1561 -344 c45 -9 50 -13 47 -32 -3 -12 -7 -38 -10 -57 l-6 -35 -69 3 c-117 6 -171 -41 -171 -148 0 -107 56 -155 171 -148 l67 4 7 -44 c4 -25 9 -50 12 -57 6 -18 -98 -39 -156 -31 -171 23 -271 129 -271 286 0 195 163 306 379 259z m461 -119 l0 -120 115 0 115 0 0 -50 0 -50 -115 0 -115 0 0 -120 0 -120 -50 0 -50 0 0 120 0 119 -117 3 c-115 3 -118 4 -121 27 -2 12 -1 34 2 47 6 24 8 24 121 24 l115 0 0 120 0 120 50 0 50 0 0 -120z m-977 -267 c3 -5 8 -21 11 -38 6 -29 5 -30 -29 -29 -48 1 -51 8 -24 43 25 31 35 36 42 24z m22 -114 c9 -39 -5 -139 -19 -140 -6 -1 -20 -1 -31 0 -11 1 -37 2 -59 3 l-38 1 5 51 c3 28 13 67 22 86 16 34 18 35 65 32 45 -4 49 -6 55 -33z"/>
 <path d="M3050 5529 c0 -15 -2 -42 -5 -60 -4 -29 -3 -30 4 -9 5 14 9 20 10 14 2 -20 48 -3 60 22 11 25 12 24 -37 28 -7 1 -17 8 -22 16 -8 12 -10 9 -10 -11z"/>
 <path d="M3260 5498 l-20 -28 560 -2 c367 -2 561 0 563 7 2 6 0 19 -5 30 -9 20 -19 20 -543 20 l-535 0 -20 -27z"/>
 <path d="M3164 4951 c6 -9 0 -10 -20 -5 -19 5 -25 4 -20 -5 4 -6 11 -9 16 -6 5 3 12 1 15 -5 4 -6 1 -9 -7 -8 -9 2 -12 -6 -11 -24 2 -39 27 -84 43 -80 11 3 11 0 0 -13 -11 -14 -11 -16 1 -13 9 2 14 -6 13 -24 0 -15 4 -24 8 -22 5 3 6 16 4 29 -4 19 -1 23 12 18 9 -3 23 -11 31 -17 12 -9 13 -8 6 3 -6 11 -4 13 9 8 14 -6 16 -3 10 16 l-6 22 24 -23 25 -22 26 20 c15 12 31 19 36 16 5 -4 11 -3 14 1 2 5 3 3 1 -4 -1 -6 0 -14 4 -17 3 -4 7 -16 9 -28 3 -17 1 -19 -11 -9 -11 9 -16 9 -22 0 -4 -7 -3 -9 4 -5 6 3 13 2 17 -4 13 -21 24 2 20 43 -3 28 -1 37 5 27 5 -8 6 -18 4 -22 -3 -4 -1 -8 5 -8 5 0 8 -9 6 -20 -2 -11 0 -18 6 -15 5 4 9 1 9 -6 0 -7 3 -10 6 -6 3 3 2 12 -2 19 -5 7 -10 18 -11 23 -2 6 -15 45 -29 88 l-27 77 -64 0 -64 0 17 -32 c9 -18 23 -41 32 -50 13 -16 13 -18 0 -23 -18 -7 -91 39 -80 50 4 3 3 5 -3 3 -15 -5 -58 29 -51 41 4 5 1 13 -5 17 -8 4 -9 3 -5 -5z m220 -21 c2 -3 -17 -5 -44 -5 -26 0 -51 3 -55 6 -3 4 16 6 44 5 27 0 52 -3 55 -6z"/>
 <path d="M4291 4945 c11 -11 209 -14 209 -3 0 4 -49 8 -110 10 -73 2 -106 0 -99 -7z"/>
 <path d="M4754 4947 c-5 -13 -9 -15 -14 -7 -5 8 -9 7 -13 -4 -4 -9 -3 -15 1 -15 4 1 9 0 12 -1 39 -15 56 -2 35 26 -13 18 -14 18 -21 1z"/>
 <path d="M4624 4941 c3 -5 15 -7 26 -4 28 7 25 13 -6 13 -14 0 -23 -4 -20 -9z"/>
 <path d="M4248 4908 c2 -10 0 -18 -4 -18 -5 0 -7 -24 -6 -54 4 -53 4 -54 23 -38 22 19 59 24 76 10 8 -6 15 -3 22 9 6 10 11 13 11 8 0 -20 -23 -35 -35 -25 -9 7 -16 6 -24 -4 -10 -12 -8 -13 10 -9 17 5 20 3 14 -8 -6 -11 -5 -12 6 -1 22 20 34 14 14 -8 -10 -11 -16 -20 -14 -21 2 0 11 -2 20 -4 9 -1 23 1 30 6 12 8 11 9 -1 7 -9 -2 -15 2 -15 7 0 6 4 9 9 7 5 -2 4 3 -1 10 -8 10 -8 18 3 32 12 17 14 18 20 2 5 -14 9 -14 23 -4 14 12 15 11 2 -5 -10 -13 -17 -14 -26 -7 -9 8 -15 8 -20 0 -3 -5 1 -10 10 -10 10 0 14 -5 9 -12 -6 -10 -4 -10 7 0 21 19 34 14 15 -7 -10 -11 -13 -21 -7 -25 5 -4 12 -2 16 4 3 5 3 10 -1 10 -3 0 -1 7 6 15 7 8 9 15 5 15 -5 0 -1 8 7 18 20 21 44 100 34 109 -4 4 -60 8 -125 8 -107 0 -117 -2 -113 -17z"/>
 <path d="M3361 4796 c-9 -11 -9 -16 0 -22 8 -5 9 -3 4 6 -6 10 -4 12 8 7 10 -3 17 -2 17 3 0 16 -18 20 -29 6z"/>
 <path d="M4183 4786 c0 -8 4 -14 8 -13 4 1 7 -2 8 -8 1 -13 -22 -13 -32 0 -5 6 -7 5 -5 -4 5 -17 35 -24 44 -10 3 5 10 6 16 3 5 -4 2 5 -7 20 -19 29 -32 34 -32 12z"/>
 <path d="M4069 4593 c16 -32 14 -45 -8 -38 -13 4 -24 -1 -34 -15 -12 -18 -15 -19 -21 -5 -3 9 -2 13 4 10 6 -3 10 -1 10 4 0 14 -17 14 -25 1 -4 -7 -11 -7 -18 -2 -7 5 -45 6 -85 3 -40 -4 -81 -2 -90 3 -9 5 2 -8 25 -28 140 -123 136 -366 -12 -711 l-17 -40 52 50 c67 65 141 164 185 246 l35 67 0 141 c0 141 0 141 25 153 14 6 25 19 25 28 0 24 -38 133 -51 145 -8 7 -8 4 0 -12z"/>
 <path d="M3525 4525 c8 -119 50 -206 117 -241 38 -20 39 -19 17 31 -29 67 -34 133 -12 174 24 45 64 74 102 73 17 0 31 4 31 9 0 15 -45 10 -82 -8 -68 -34 -70 -35 -63 -24 4 7 -12 11 -49 11 -48 0 -55 3 -60 23 -3 12 -3 -9 -1 -48z"/>
 <path d="M3215 4356 c-32 -35 -45 -71 -45 -130 0 -27 18 -50 130 -161 l130 -130 0 196 c0 190 -1 196 -22 216 -36 33 -63 43 -114 43 -40 0 -51 -5 -79 -34z"/>
 <path d="M4022 3714 c-40 -28 -56 -73 -56 -159 0 -107 24 -181 75 -231 l39 -38 0 222 c0 206 -1 222 -18 222 -10 0 -28 -7 -40 -16z"/>
 <path d="M4188 3437 l-3 -257 184 -183 183 -182 -5 120 c-7 135 -10 160 -38 263 -41 153 -136 316 -253 431 l-65 65 -3 -257z"/>
 <path d="M3780 3035 l0 -55 -95 0 c-90 0 -96 -1 -118 -26 -16 -19 -23 -42 -27 -91 -3 -35 -3 -67 -1 -69 2 -2 58 -4 123 -4 l118 0 0 -50 0 -49 -121 -3 -121 -3 0 -90 0 -90 122 -3 121 -3 -3 -42 -3 -42 -109 -3 c-61 -1 -115 -7 -120 -11 -7 -6 -10 -44 -8 -100 l3 -91 120 0 119 0 0 -45 c0 -53 -1 -54 -140 -58 l-95 -2 -3 -107 c-3 -119 5 -147 61 -206 39 -41 108 -62 199 -62 141 0 209 33 254 125 24 50 26 63 21 123 -4 37 -7 221 -7 410 -1 292 -3 342 -15 342 -9 0 -15 -9 -15 -22 0 -12 -2 -19 -4 -17 -4 4 -8 26 -21 137 -4 28 -11 52 -16 52 -5 0 -9 6 -9 14 0 26 -50 122 -77 148 -31 30 -72 48 -109 48 -22 0 -24 -3 -24 -55z"/>
 <path d="M3301 2766 c10 -8 89 -13 83 -5 -3 5 -24 9 -46 9 -23 0 -39 -2 -37 -4z"/>
 <path d="M4658 2763 c12 -3 20 -7 18 -11 -2 -4 7 -8 21 -9 17 -1 21 2 13 7 -10 6 -8 9 6 12 10 3 -3 5 -31 5 -27 0 -40 -2 -27 -4z"/>
 <path d="M3204 7426 l-70 -8 150 -514 c83 -283 153 -514 156 -514 3 0 4 201 2 447 -2 441 -3 448 -23 466 -15 12 -39 17 -80 17 l-58 0 -3 58 -3 57 -71 -9z"/>
 <path d="M2795 7341 c-33 -11 -89 -27 -125 -38 l-65 -19 -3 -429 c-1 -236 0 -427 2 -424 2 2 63 206 136 452 72 247 134 455 137 463 7 18 -9 17 -82 -5z"/>
 <path d="M5300 6778 c0 -193 2 -349 4 -347 5 5 176 587 176 599 0 5 -40 30 -90 55 l-90 45 0 -352z"/>
 <path d="M6062 6645 c36 -136 75 -255 82 -255 4 0 6 10 2 23 -3 12 -6 59 -6 104 l0 81 -42 33 c-34 28 -41 30 -36 14z"/>
 </g>
<g id="layer105" fill="#f7b594" stroke="none">
 <path d="M3930 7395 l0 -75 -58 0 c-36 0 -66 -6 -80 -16 l-22 -15 0 -453 0 -453 23 -21 c18 -17 36 -22 80 -22 l57 0 0 -95 0 -95 -312 2 -311 3 -28 95 c-15 52 -50 172 -77 265 -27 94 -69 236 -93 318 -23 81 -45 147 -48 147 -4 0 -25 -69 -49 -153 -23 -83 -76 -269 -116 -412 l-73 -260 -307 -3 -306 -2 0 95 0 95 63 0 c104 0 97 -30 97 448 0 227 -2 412 -5 412 -6 0 -186 -80 -247 -110 -44 -22 -48 -27 -58 -75 -6 -28 -28 -78 -50 -111 -70 -108 -164 -158 -445 -240 l-200 -58 -80 -71 c-44 -40 -81 -79 -83 -87 -2 -9 11 -32 27 -51 40 -45 98 -61 196 -55 140 9 278 103 376 253 l40 62 88 -25 88 -25 -59 -226 c-32 -124 -58 -227 -58 -228 0 -2 -31 -3 -69 -3 -67 0 -69 1 -81 30 -7 17 -16 33 -20 35 -5 3 -34 -8 -67 -24 -83 -41 -154 -56 -263 -55 -138 1 -264 40 -356 111 l-31 23 -55 -62 c-335 -388 -579 -817 -739 -1300 -159 -483 -222 -1041 -169 -1503 59 -521 169 -905 381 -1327 178 -355 382 -640 663 -927 299 -304 590 -519 956 -705 404 -206 766 -319 1223 -381 323 -43 784 -33 1124 26 1046 180 2000 835 2539 1741 271 456 428 922 509 1508 26 184 27 210 22 475 -5 302 -12 365 -74 659 -128 616 -355 1111 -723 1580 l-75 95 -294 3 -294 3 -28 95 c-15 52 -53 183 -84 290 -32 107 -65 220 -73 251 -12 44 -23 60 -50 78 -18 12 -36 20 -39 18 -3 -3 -34 -108 -69 -234 -36 -125 -82 -289 -103 -363 l-39 -135 -306 -3 -306 -2 0 95 0 95 63 0 c104 0 97 -32 97 462 l0 426 -142 47 c-126 42 -152 48 -218 46 -46 -1 -84 -8 -97 -17 l-23 -14 0 -460 0 -459 22 -15 c14 -10 44 -16 80 -16 l58 0 0 -95 0 -95 -330 0 -330 0 0 95 0 95 58 0 c36 0 66 6 80 16 l22 15 0 458 c0 529 8 491 -98 491 l-62 0 0 69 0 68 -52 7 c-29 3 -65 6 -80 6 l-28 0 0 -75z m-153 -1410 c527 -65 919 -333 1013 -690 25 -98 41 -333 21 -320 -10 6 -11 2 -6 -15 5 -15 4 -20 -4 -16 -15 10 -14 -7 2 -23 6 -7 8 -12 2 -11 -5 2 -12 1 -15 0 -20 -7 -41 -7 -46 2 -4 7 -9 7 -13 0 -4 -6 -11 -4 -19 4 -7 8 -8 14 -2 14 5 0 10 4 10 8 0 5 -6 9 -14 9 -14 0 -16 -14 -4 -32 4 -6 -2 -12 -13 -12 -11 -1 -17 2 -14 8 4 5 -1 10 -9 10 -9 1 -23 2 -32 3 -13 1 -22 -16 -35 -64 -9 -35 -16 -67 -13 -71 2 -4 -3 -12 -11 -19 -8 -7 -12 -16 -10 -21 6 -8 43 -4 54 7 3 3 -1 4 -9 2 -9 -1 -15 2 -15 7 0 6 4 9 10 7 5 -2 4 2 -2 9 -9 9 -10 16 -2 26 14 16 29 17 29 2 0 -5 -4 -8 -9 -4 -5 3 -12 1 -15 -4 -3 -5 8 -11 24 -13 22 -3 27 -1 20 7 -5 7 -7 15 -3 18 12 12 23 7 23 -10 0 -14 2 -15 18 -1 21 19 49 19 49 1 0 -9 -4 -10 -12 -3 -9 7 -16 6 -24 -4 -10 -12 -9 -14 8 -9 15 4 19 0 17 -14 -2 -10 -8 -18 -14 -18 -6 0 -13 -3 -17 -7 -6 -5 19 -4 35 2 3 1 9 2 14 1 5 -1 4 4 -2 12 -12 14 -7 27 10 27 5 0 7 -4 4 -9 -3 -5 2 -15 12 -22 15 -13 16 -12 4 3 -9 12 -10 18 -2 23 24 15 23 -11 -4 -118 -27 -110 -76 -241 -175 -466 -27 -63 -55 -145 -62 -184 -23 -126 11 -269 115 -496 30 -64 63 -137 74 -162 12 -25 31 -92 42 -150 19 -88 21 -125 17 -239 -3 -74 -12 -159 -20 -187 l-15 -53 424 0 424 0 0 -55 0 -55 -445 -2 -446 -3 -50 -93 c-27 -52 -60 -110 -74 -129 -33 -49 -128 -162 -137 -162 -4 -1 1 19 12 44 22 52 63 216 81 324 l12 73 -174 174 c-153 154 -174 172 -177 150 -2 -14 4 -49 13 -78 67 -221 69 -456 7 -658 -16 -49 -22 -102 -25 -220 -3 -118 -9 -166 -22 -200 -39 -98 -109 -166 -205 -201 -55 -20 -58 -23 -65 -62 -4 -23 -9 -49 -11 -57 -2 -8 -4 -71 -5 -140 -1 -124 9 -211 36 -304 13 -44 13 -47 -2 -35 -37 31 -135 176 -176 262 -60 124 -78 179 -84 265 -6 70 -7 73 -38 88 -18 8 -52 32 -76 52 l-42 36 6 -39 c5 -38 -10 -159 -31 -237 -5 -20 -24 -68 -42 -105 l-32 -68 -18 35 c-10 19 -33 76 -51 125 -29 81 -33 101 -33 205 -1 63 2 126 6 140 7 24 10 25 78 22 45 -2 70 0 70 7 0 15 -45 24 -91 18 -21 -3 -39 -3 -39 -1 0 11 42 92 60 114 19 25 19 25 34 5 14 -18 15 -3 16 163 0 164 -2 187 -19 210 -46 67 -90 179 -111 288 -11 57 -9 270 3 334 2 14 8 48 12 75 4 28 32 151 61 275 50 210 54 233 54 350 l0 125 -120 120 c-88 88 -120 114 -120 99 0 -97 -116 -331 -234 -473 -35 -41 -37 -42 -29 -15 4 16 8 90 7 164 0 120 -3 144 -28 215 -39 114 -95 230 -172 356 l-66 109 -384 0 -384 0 0 50 0 50 358 0 c197 0 361 2 364 5 3 3 -5 44 -18 91 -27 101 -44 233 -32 241 5 3 16 -3 24 -13 9 -11 13 -13 9 -6 -4 7 0 12 10 12 9 0 14 4 11 8 -2 4 0 14 5 22 7 12 8 11 6 -5 -1 -11 -6 -25 -9 -31 -4 -6 -1 -11 7 -11 8 0 12 4 9 9 -3 4 0 8 6 8 6 0 9 4 5 9 -3 5 -1 12 4 16 6 3 8 -6 6 -22 -2 -16 -2 -22 1 -15 3 6 10 12 15 12 6 0 7 -5 3 -12 -4 -7 -3 -8 5 -4 9 6 9 11 1 21 -8 10 -8 15 1 21 8 4 9 3 5 -4 -4 -7 -3 -12 3 -12 5 0 13 5 16 10 3 6 15 10 26 10 11 0 17 -5 14 -10 -3 -6 0 -12 7 -15 8 -3 14 -15 15 -25 1 -13 -2 -18 -9 -14 -7 4 -8 2 -4 -5 10 -16 29 -3 22 15 -8 21 21 29 41 13 14 -12 16 -12 8 0 -6 11 -4 13 9 8 14 -6 16 -3 11 16 -6 21 -5 21 7 2 7 -11 14 -28 15 -39 3 -15 1 -16 -11 -7 -11 9 -16 9 -22 -1 -4 -7 -4 -10 1 -6 4 4 14 3 22 -3 13 -11 15 -9 17 21 1 11 13 15 44 14 42 0 53 8 30 22 -6 4 -14 2 -16 -4 -2 -7 -8 -12 -14 -12 -6 0 -6 6 2 15 13 15 51 21 49 8 -1 -5 -1 -10 1 -13 1 -3 3 -16 6 -29 4 -20 2 -22 -10 -12 -11 9 -16 9 -22 0 -4 -7 -3 -9 4 -5 6 3 13 2 17 -4 11 -18 25 0 21 25 -4 19 -1 23 12 18 9 -3 24 -11 32 -17 13 -10 13 -9 1 7 -7 9 -11 17 -8 17 3 0 1 17 -4 38 -5 20 -11 45 -14 55 -2 9 -6 20 -8 25 -3 4 -90 7 -194 6 -153 0 -187 -3 -185 -14 3 -11 0 -11 -12 0 -13 10 -16 10 -16 -1 0 -11 -2 -11 -9 1 -13 19 -3 34 14 20 7 -6 16 -7 18 -3 3 5 91 9 196 8 105 0 191 3 191 8 0 5 -99 7 -220 6 -121 -1 -222 0 -225 2 -10 11 27 219 56 314 47 156 158 344 265 451 176 175 361 255 639 273 61 5 115 9 120 9 6 1 65 -5 132 -13z m-1210 -1132 c-2 -16 -4 -5 -4 22 0 28 2 40 4 28 2 -13 2 -35 0 -50z m2419 -391 c19 -40 37 -85 38 -100 l4 -27 -107 2 c-58 1 -107 2 -108 2 -5 2 57 161 78 202 l21 43 20 -25 c11 -13 35 -57 54 -97z m76 -227 c25 -105 22 -321 -6 -485 -2 -14 -7 -45 -10 -69 -7 -46 -55 -254 -61 -259 -7 -8 -97 152 -130 232 -69 170 -95 340 -76 510 18 162 3 147 145 144 l121 -3 17 -70z m-2626 -117 c7 -5 8 -25 1 -67 -9 -58 -10 -59 -34 -50 -69 26 -149 0 -197 -64 -26 -35 -27 -118 -3 -164 28 -53 61 -68 146 -68 l76 -1 12 -54 c6 -30 10 -56 8 -58 -2 -3 -44 -6 -93 -9 -124 -6 -186 13 -251 76 -63 61 -85 125 -79 225 8 123 67 201 178 237 29 10 220 7 236 -3z m374 -283 l0 -55 -140 0 -140 0 0 55 0 55 140 0 140 0 0 -55z m360 -315 c0 -5 5 -55 11 -110 16 -151 21 -145 -106 -145 -58 0 -105 1 -105 2 0 11 91 148 132 199 49 61 68 76 68 54z m20 -342 c-1 -116 -41 -269 -105 -404 -19 -39 -39 -91 -44 -115 -24 -101 -5 -276 39 -377 11 -25 18 -47 16 -49 -10 -10 -144 129 -187 195 -72 110 -84 154 -84 307 0 151 16 229 77 382 l41 102 116 4 c64 1 119 4 124 5 4 1 7 -22 7 -50z m1719 -789 c45 -9 50 -13 47 -32 -3 -12 -7 -38 -10 -57 l-6 -35 -69 3 c-117 6 -171 -41 -171 -148 0 -107 56 -155 171 -148 l67 4 7 -44 c4 -25 9 -50 12 -57 6 -18 -98 -39 -156 -31 -171 23 -271 129 -271 286 0 195 163 306 379 259z m461 -119 l0 -120 115 0 115 0 0 -50 0 -50 -115 0 -115 0 0 -120 0 -120 -50 0 -50 0 0 120 0 119 -117 3 c-115 3 -118 4 -121 27 -2 12 -1 34 2 47 6 24 8 24 121 24 l115 0 0 120 0 120 50 0 50 0 0 -120z m-977 -267 c3 -5 8 -21 11 -38 6 -29 5 -30 -29 -29 -48 1 -51 8 -24 43 25 31 35 36 42 24z m22 -114 c9 -40 -2 -120 -27 -199 -26 -82 -32 -88 -59 -64 -57 50 -74 184 -35 264 17 34 19 35 66 32 45 -4 49 -6 55 -33z"/>
 <path d="M3050 5529 c0 -15 -2 -42 -5 -60 -4 -29 -3 -30 4 -9 5 14 9 20 10 14 2 -20 48 -3 60 22 11 25 12 24 -37 28 -7 1 -17 8 -22 16 -8 12 -10 9 -10 -11z"/>
 <path d="M3260 5498 l-20 -28 560 -2 c367 -2 561 0 563 7 2 6 0 19 -5 30 -9 20 -19 20 -543 20 l-535 0 -20 -27z"/>
 <path d="M3164 4951 c6 -9 0 -10 -20 -5 -19 5 -25 4 -20 -5 4 -6 11 -9 16 -6 5 3 12 1 15 -5 4 -6 1 -9 -7 -8 -9 2 -12 -6 -11 -24 2 -39 27 -84 43 -80 11 3 11 0 0 -13 -11 -14 -11 -16 1 -13 9 2 14 -6 13 -24 0 -15 4 -24 8 -22 5 3 6 16 4 29 -4 19 -1 23 12 18 9 -3 23 -11 31 -17 12 -9 13 -8 6 3 -6 11 -4 13 9 8 14 -6 16 -3 10 16 l-6 22 24 -23 25 -22 26 20 c15 12 31 19 36 16 5 -4 11 -3 14 1 2 5 3 3 1 -4 -1 -6 0 -14 4 -17 3 -4 7 -16 9 -28 3 -17 1 -19 -11 -9 -11 9 -16 9 -22 0 -4 -7 -3 -9 4 -5 6 3 13 2 17 -4 13 -21 24 2 20 43 -3 28 -1 37 5 27 5 -8 6 -18 4 -22 -3 -4 -1 -8 5 -8 5 0 8 -9 6 -20 -2 -11 0 -18 6 -15 5 4 9 1 9 -6 0 -7 3 -10 6 -6 3 3 2 12 -2 19 -5 7 -10 18 -11 23 -2 6 -15 45 -29 88 l-27 77 -64 0 -64 0 17 -32 c9 -18 23 -41 32 -50 13 -16 13 -18 0 -23 -18 -7 -91 39 -80 50 4 3 3 5 -3 3 -15 -5 -58 29 -51 41 4 5 1 13 -5 17 -8 4 -9 3 -5 -5z m220 -21 c2 -3 -17 -5 -44 -5 -26 0 -51 3 -55 6 -3 4 16 6 44 5 27 0 52 -3 55 -6z"/>
 <path d="M4291 4945 c11 -11 209 -14 209 -3 0 4 -49 8 -110 10 -73 2 -106 0 -99 -7z"/>
 <path d="M4754 4947 c-5 -13 -9 -15 -14 -7 -5 8 -9 7 -13 -4 -4 -9 -3 -15 1 -15 4 1 9 0 12 -1 39 -15 56 -2 35 26 -13 18 -14 18 -21 1z"/>
 <path d="M4624 4941 c3 -5 15 -7 26 -4 28 7 25 13 -6 13 -14 0 -23 -4 -20 -9z"/>
 <path d="M4248 4908 c2 -10 0 -18 -4 -18 -5 0 -7 -24 -6 -54 4 -53 4 -54 23 -38 22 19 59 24 76 10 8 -6 15 -3 22 9 6 10 11 13 11 8 0 -20 -23 -35 -35 -25 -9 7 -16 6 -24 -4 -10 -12 -8 -13 10 -9 17 5 20 3 14 -8 -6 -11 -5 -12 6 -1 22 20 34 14 14 -8 -10 -11 -16 -20 -14 -21 2 0 11 -2 20 -4 9 -1 23 1 30 6 12 8 11 9 -1 7 -9 -2 -15 2 -15 7 0 6 4 9 9 7 5 -2 4 3 -1 10 -8 10 -8 18 3 32 12 17 14 18 20 2 5 -14 9 -14 23 -4 14 12 15 11 2 -5 -10 -13 -17 -14 -26 -7 -9 8 -15 8 -20 0 -3 -5 1 -10 10 -10 10 0 14 -5 9 -12 -6 -10 -4 -10 7 0 21 19 34 14 15 -7 -10 -11 -13 -21 -7 -25 5 -4 12 -2 16 4 3 5 3 10 -1 10 -3 0 -1 7 6 15 7 8 9 15 5 15 -5 0 -1 8 7 18 20 21 44 100 34 109 -4 4 -60 8 -125 8 -107 0 -117 -2 -113 -17z"/>
 <path d="M3361 4796 c-9 -11 -9 -16 0 -22 8 -5 9 -3 4 6 -6 10 -4 12 8 7 10 -3 17 -2 17 3 0 16 -18 20 -29 6z"/>
 <path d="M4183 4786 c0 -8 4 -14 8 -13 4 1 7 -2 8 -8 1 -13 -22 -13 -32 0 -5 6 -7 5 -5 -4 5 -17 35 -24 44 -10 3 5 10 6 16 3 5 -4 2 5 -7 20 -19 29 -32 34 -32 12z"/>
 <path d="M3215 4356 c-32 -35 -45 -71 -45 -130 0 -27 18 -50 130 -161 l130 -130 0 196 c0 190 -1 196 -22 216 -36 33 -63 43 -114 43 -40 0 -51 -5 -79 -34z"/>
 <path d="M4022 3714 c-40 -28 -56 -73 -56 -159 0 -107 24 -181 75 -231 l39 -38 0 222 c0 206 -1 222 -18 222 -10 0 -28 -7 -40 -16z"/>
 <path d="M4188 3437 l-3 -257 183 -183 182 -182 0 73 c0 289 -108 558 -299 746 l-60 60 -3 -257z"/>
 <path d="M3780 3035 l0 -55 -92 0 -93 0 -27 -33 c-21 -27 -27 -47 -29 -93 l-3 -59 122 -3 122 -3 0 -49 0 -49 -121 -3 -121 -3 0 -90 0 -90 122 -3 121 -3 -3 -42 -3 -42 -109 -3 c-61 -1 -115 -7 -120 -11 -7 -6 -10 -44 -8 -100 l3 -91 120 0 119 0 0 -45 c0 -53 -1 -54 -140 -58 l-95 -2 -3 -107 c-3 -124 10 -161 74 -218 l38 -33 12 34 c21 61 61 132 126 224 87 124 110 165 151 275 99 267 96 590 -8 731 -32 42 -91 79 -127 79 -27 0 -28 -2 -28 -55z"/>
 <path d="M4056 1967 c-38 -62 -107 -209 -102 -214 13 -13 77 51 101 101 19 40 25 66 23 100 l-3 46 -19 -33z"/>
 <path d="M3204 7426 l-70 -8 150 -514 c83 -283 153 -514 156 -514 3 0 4 201 2 447 -2 441 -3 448 -23 466 -15 12 -39 17 -80 17 l-58 0 -3 58 -3 57 -71 -9z"/>
 <path d="M2795 7341 c-33 -11 -89 -27 -125 -38 l-65 -19 -3 -429 c-1 -236 0 -427 2 -424 2 2 63 206 136 452 72 247 134 455 137 463 7 18 -9 17 -82 -5z"/>
 <path d="M5300 6778 c0 -193 2 -349 4 -347 5 5 176 587 176 599 0 5 -40 30 -90 55 l-90 45 0 -352z"/>
 <path d="M6062 6645 c36 -136 75 -255 82 -255 4 0 6 10 2 23 -3 12 -6 59 -6 104 l0 81 -42 33 c-34 28 -41 30 -36 14z"/>
 </g>
<g id="layer106" fill="#ffffff" stroke="none">
 <path d="M3930 7395 l0 -75 -50 0 c-60 0 -99 -16 -106 -44 -2 -12 -3 -218 -2 -458 3 -503 -4 -469 98 -476 l60 -4 0 -94 0 -94 -313 0 -313 0 -119 405 c-65 223 -121 405 -124 405 -3 0 -58 -182 -121 -405 l-114 -405 -308 0 -308 0 0 95 0 95 55 0 c46 0 60 4 80 25 l25 24 0 406 c0 223 -2 405 -5 405 -6 0 -186 -80 -247 -110 -41 -21 -47 -28 -53 -64 -3 -23 -15 -57 -25 -76 -10 -19 -23 -44 -29 -56 -17 -38 -104 -105 -186 -144 -44 -21 -164 -63 -267 -93 -103 -31 -194 -59 -202 -64 -8 -4 -44 -34 -80 -66 -77 -68 -83 -93 -36 -137 87 -81 282 -56 427 55 41 31 154 172 165 206 3 10 148 -23 177 -40 7 -5 -7 -79 -47 -234 l-57 -227 -72 0 c-70 0 -73 1 -88 30 -9 17 -18 30 -22 30 -3 0 -30 -11 -59 -25 -191 -90 -476 -63 -621 59 l-30 25 -54 -62 c-332 -380 -580 -815 -740 -1299 -159 -483 -222 -1041 -169 -1503 60 -529 172 -912 390 -1345 352 -696 924 -1268 1620 -1620 367 -186 735 -303 1145 -367 146 -22 211 -27 461 -30 299 -5 493 7 700 42 1166 199 2174 938 2695 1977 203 404 317 784 384 1282 26 188 27 215 22 475 -5 297 -13 363 -74 656 -126 609 -356 1110 -723 1579 l-75 96 -295 0 -296 0 -99 343 c-86 295 -104 346 -129 370 -15 15 -31 27 -35 27 -3 0 -53 -166 -110 -370 l-105 -370 -308 0 -308 0 0 95 0 95 55 0 c46 0 60 4 80 25 l25 24 0 419 0 420 -142 47 c-122 41 -153 48 -212 46 -67 -2 -103 -13 -118 -35 -4 -6 -8 -210 -8 -454 l0 -443 25 -24 c20 -21 34 -25 80 -25 l55 0 0 -95 0 -95 -330 0 -330 0 0 95 0 95 55 0 c46 0 60 4 80 25 l25 24 0 433 c0 238 -3 443 -6 454 -8 29 -44 44 -104 44 l-50 0 0 69 0 68 -52 7 c-29 3 -65 6 -80 6 l-28 0 0 -75z m-108 -1410 c453 -68 795 -280 932 -576 46 -100 68 -209 68 -349 0 -253 -57 -483 -197 -795 -87 -193 -99 -237 -93 -354 6 -115 38 -216 126 -401 120 -253 155 -445 116 -645 -9 -44 -18 -92 -21 -107 l-5 -28 421 0 421 0 0 -55 0 -55 -444 0 -443 0 -17 -44 c-23 -59 -142 -238 -205 -306 -28 -30 -51 -52 -51 -47 0 4 15 58 34 120 37 121 66 259 66 311 0 27 -22 53 -170 201 -150 150 -170 167 -170 143 0 -15 6 -45 14 -65 73 -190 81 -441 20 -633 -23 -72 -28 -111 -34 -255 -7 -173 -14 -209 -55 -275 -39 -62 -145 -140 -189 -140 -30 0 -43 -30 -56 -126 -20 -153 -3 -336 45 -479 11 -32 -70 62 -129 150 -95 141 -149 274 -160 394 -7 68 -11 81 -28 81 -6 0 -32 16 -59 36 l-49 36 0 -65 c0 -35 -9 -97 -19 -138 -21 -82 -79 -219 -92 -219 -14 0 -54 88 -83 179 -33 103 -43 215 -27 293 13 60 57 157 91 197 20 23 21 23 35 5 13 -17 14 1 15 154 l0 173 -40 66 c-79 132 -104 229 -104 413 1 157 21 283 90 559 49 198 54 226 54 330 l0 114 -112 113 c-61 63 -114 111 -117 108 -3 -3 -11 -31 -17 -63 -24 -114 -135 -315 -238 -427 l-45 -49 16 45 c11 30 16 79 16 150 0 177 -51 327 -190 561 l-76 129 -384 0 -383 0 0 60 0 60 361 0 c339 0 360 1 355 18 -143 456 -21 964 303 1264 40 37 98 84 129 104 178 119 492 171 774 129z m1122 -1438 c67 -88 134 -292 143 -437 9 -153 -28 -443 -84 -643 l-16 -58 -29 43 c-78 116 -149 289 -174 428 -27 152 -13 360 35 505 28 84 79 195 91 195 5 0 20 -15 34 -33z m-2516 -423 c22 -6 23 -10 17 -53 -11 -80 -7 -77 -83 -73 -51 3 -77 0 -101 -12 -93 -48 -96 -203 -6 -262 28 -18 100 -24 146 -11 26 7 27 5 39 -55 14 -72 12 -73 -70 -83 -113 -13 -218 22 -284 95 -54 60 -70 102 -70 191 -1 180 120 287 314 274 41 -3 86 -8 98 -11z m382 -289 l0 -55 -145 0 -145 0 0 55 0 55 145 0 145 0 0 -55z m380 -480 c11 -144 1 -293 -26 -398 -9 -34 -38 -110 -65 -168 -65 -140 -79 -227 -57 -350 9 -48 28 -115 42 -150 14 -35 23 -65 21 -67 -9 -9 -126 102 -171 161 -119 158 -147 308 -99 538 43 210 158 438 294 582 l36 38 7 -28 c4 -15 12 -87 18 -158z m1760 -971 c7 -7 8 -32 4 -67 l-7 -57 -71 6 c-82 6 -121 -11 -156 -68 -42 -69 -17 -165 52 -209 28 -17 44 -20 100 -15 l67 5 12 -55 c9 -40 9 -58 1 -66 -17 -17 -153 -22 -211 -8 -94 22 -176 96 -202 181 -5 19 -10 64 -10 101 -1 127 65 221 181 259 35 12 227 6 240 -7z m420 -114 l0 -120 115 0 115 0 0 -55 0 -55 -115 0 -115 0 0 -121 0 -120 -52 3 -53 3 -3 117 -3 117 -112 3 -112 3 -3 53 -3 52 115 0 116 0 0 120 0 120 55 0 55 0 0 -120z m-962 -301 c26 -110 9 -250 -42 -347 l-12 -23 -28 28 c-90 90 -84 230 15 346 22 26 44 47 48 47 4 0 13 -23 19 -51z"/>
 <path d="M3260 4383 c-44 -16 -75 -65 -84 -132 l-6 -45 130 -130 130 -131 0 191 c0 210 2 203 -67 238 -32 16 -74 20 -103 9z"/>
 <path d="M4021 3704 c-17 -14 -35 -42 -41 -62 -28 -101 4 -252 65 -312 l35 -34 0 217 c0 239 0 241 -59 191z"/>
 <path d="M4190 3435 l0 -250 180 -180 181 -180 -6 85 c-23 317 -111 534 -289 710 l-66 64 0 -249z"/>
 <path d="M3780 3030 l0 -50 -87 0 c-95 0 -98 -1 -131 -44 -16 -21 -22 -42 -22 -82 l0 -54 120 0 120 0 0 -60 0 -60 -120 0 -120 0 0 -85 0 -85 120 0 121 0 -2 -60 -2 -60 -118 0 -119 0 0 -90 0 -90 120 0 120 0 0 -55 0 -54 -97 0 c-54 0 -108 0 -120 0 -22 -1 -23 -4 -23 -98 0 -73 5 -108 19 -138 17 -38 74 -105 89 -105 4 0 16 24 26 53 17 49 59 117 141 232 92 128 171 337 192 510 19 148 -5 325 -56 419 -32 61 -91 106 -138 106 l-33 0 0 -50z"/>
 <path d="M4033 1918 c-38 -63 -77 -148 -70 -154 9 -9 68 49 86 85 21 41 37 121 24 121 -5 0 -23 -24 -40 -52z"/>
 <path d="M3203 7425 c-59 -8 -70 -13 -63 -25 4 -8 72 -233 150 -500 78 -267 144 -487 146 -489 2 -2 4 189 4 426 0 503 6 473 -98 481 l-61 4 -3 57 -3 56 -72 -10z"/>
 <path d="M2820 7348 c-19 -5 -39 -14 -44 -19 -6 -5 -21 -9 -35 -9 -49 0 -131 -33 -137 -54 -2 -12 -3 -202 -2 -424 l3 -403 133 453 c73 249 132 456 132 461 0 8 -5 8 -50 -5z"/>
 <path d="M5301 6783 c0 -192 2 -343 5 -338 2 6 40 134 84 285 45 151 83 283 86 292 4 13 -15 27 -85 63 l-91 45 1 -347z"/>
 <path d="M6081 6593 c10 -37 28 -95 38 -128 l19 -60 1 97 1 96 -39 31 -40 32 20 -68z"/>
 </g>

</svg>