<?xml version="1.0" standalone="no"?>
<!DOCTYPE svg PUBLIC "-//W3C//DTD SVG 20010904//EN"
 "http://www.w3.org/TR/2001/REC-SVG-20010904/DTD/svg10.dtd">
<svg version="1.0" xmlns="http://www.w3.org/2000/svg"
 width="750.000000pt" height="750.000000pt" viewBox="0 0 750.000000 750.000000"
 preserveAspectRatio="xMidYMid meet">
<metadata>
Created by potrace 1.15, written by Peter Selinger 2001-2017
</metadata>
<g transform="translate(0.000000,750.000000) scale(0.100000,-0.100000)"
fill="#000000" stroke="none">
<path d="M0 3750 l0 -3750 3750 0 3750 0 0 3750 0 3750 -3750 0 -3750 0 0
-3750z m4128 3695 c1162 -117 2218 -785 2808 -1777 271 -456 428 -922 509
-1508 26 -184 27 -210 22 -475 -5 -302 -12 -365 -74 -659 -128 -616 -355
-1111 -723 -1580 l-75 -95 -294 -3 -294 -3 -101 -344 c-96 -326 -103 -345
-134 -369 -18 -14 -35 -22 -38 -19 -3 3 -52 169 -108 369 l-103 363 -307 3
-306 2 0 -95 0 -95 60 0 c106 0 100 30 100 -464 l0 -424 -142 -47 c-126 -42
-152 -48 -218 -46 -46 1 -84 8 -97 17 l-23 14 0 455 c0 529 -7 495 100 495
l60 0 0 95 0 95 -330 0 -330 0 0 -95 0 -95 60 0 c107 0 100 34 100 -492 0
-524 7 -488 -97 -488 l-63 0 0 -69 0 -68 -52 -7 c-29 -3 -65 -6 -80 -6 l-28 0
0 75 0 75 -58 0 c-36 0 -66 6 -80 16 l-22 15 0 451 c0 450 0 452 22 475 18 19
32 23 80 23 l58 0 0 95 0 95 -312 -2 -311 -3 -121 -412 c-66 -227 -123 -413
-126 -413 -3 0 -57 186 -121 413 l-116 412 -306 3 -307 2 0 -95 0 -95 60 0
c106 0 100 28 100 -450 0 -226 -2 -410 -5 -410 -6 0 -186 80 -247 111 -40 19
-49 28 -54 58 -11 61 -53 139 -101 186 -65 65 -194 123 -413 186 l-185 53 -80
72 c-87 78 -94 97 -53 141 37 39 98 56 188 51 145 -8 280 -98 379 -250 l42
-65 88 25 88 25 -58 226 c-33 124 -59 227 -59 229 0 1 -31 2 -68 2 l-68 0 -17
-36 c-10 -19 -21 -34 -25 -32 -102 53 -174 75 -278 84 -129 11 -301 -37 -398
-111 l-33 -25 -55 62 c-335 388 -579 817 -739 1300 -159 483 -222 1041 -169
1503 59 521 169 905 381 1327 258 514 626 954 1098 1310 291 220 697 431 1054
547 229 75 430 120 684 156 211 29 621 34 861 10z m-688 -6780 c0 -518 7 -485
-100 -485 l-60 0 0 -58 0 -58 -73 10 -73 9 151 513 c82 283 151 514 153 514 1
0 2 -200 2 -445z m-694 -70 c73 -247 131 -452 128 -454 -2 -2 -34 5 -71 17
-37 11 -97 28 -133 39 l-65 19 -2 430 c-1 236 1 422 4 414 4 -8 66 -217 139
-465z m2648 177 c47 -161 86 -297 86 -302 0 -5 -40 -30 -90 -55 l-90 -45 0
352 c0 193 2 349 4 347 2 -2 43 -136 90 -297z"/>
<path d="M3660 5864 c-97 -35 -182 -116 -213 -201 -17 -46 -18 -116 -17 -999
l0 -949 -284 -284 -285 -284 -480 -5 -481 -5 0 -47 0 -47 503 -6 502 -7 262
268 262 267 1 -207 0 -207 -57 -37 c-115 -74 -225 -198 -291 -330 -17 -34 -43
-108 -58 -165 -23 -93 -26 -117 -21 -224 9 -217 84 -385 246 -545 110 -109
198 -161 346 -206 78 -23 107 -27 220 -27 111 0 143 4 218 27 143 43 235 96
341 195 147 140 236 330 252 538 5 70 2 111 -15 198 -46 232 -175 425 -362
541 l-56 35 -7 581 -8 581 229 229 228 228 478 0 478 0 -3 53 -3 52 -495 3
-495 2 -200 -200 c-110 -110 -202 -200 -205 -200 -3 0 -4 161 -2 357 1 197 -1
459 -6 583 -7 202 -10 230 -30 271 -31 63 -96 127 -162 158 -48 23 -70 26
-170 28 -86 2 -126 -1 -160 -13z m296 -115 c25 -12 56 -36 69 -53 57 -74 55
-54 55 -718 l0 -613 -270 -270 -270 -270 0 148 0 147 120 0 120 0 0 55 0 55
-120 0 -120 0 0 90 0 89 118 3 117 3 3 53 3 52 -119 0 -119 0 -7 86 c-3 47 -4
90 -1 95 4 5 60 9 126 9 l119 0 0 50 0 49 -122 3 -123 3 0 90 0 90 123 3 122
3 0 49 0 49 -122 3 -123 3 0 90 0 90 123 3 122 3 0 49 0 49 -122 3 -123 3 1
105 c1 116 16 160 71 212 48 45 88 57 201 58 84 0 110 -4 148 -21z m122 -2230
l-3 -436 61 -32 c158 -82 283 -230 346 -411 29 -83 36 -255 13 -356 -56 -258
-249 -460 -505 -530 -99 -28 -273 -25 -370 5 -126 39 -206 87 -301 181 -70 69
-94 101 -128 170 -60 124 -76 194 -75 325 2 133 21 211 77 320 53 101 181 233
277 285 l65 35 5 297 5 296 265 268 265 269 3 -125 c1 -69 1 -321 0 -561z"/>
<path d="M3730 2909 c-111 -22 -240 -117 -287 -211 -12 -24 -29 -70 -38 -103
-50 -195 44 -389 233 -478 63 -30 74 -32 177 -32 105 0 114 2 178 33 86 43
157 114 199 199 31 64 33 74 33 178 0 103 -2 114 -32 177 -42 88 -108 158
-186 196 -99 48 -180 60 -277 41z"/>
<path d="M5270 5570 l0 -120 -115 0 -115 0 0 -50 0 -50 115 0 115 0 0 -120 0
-120 50 0 50 0 0 120 0 120 115 0 115 0 0 50 0 50 -115 0 -115 0 0 120 0 120
-50 0 -50 0 0 -120z"/>
<path d="M4761 5650 c-153 -32 -241 -150 -228 -306 14 -180 171 -277 376 -233
45 9 50 13 47 32 -3 12 -7 38 -11 58 l-5 36 -47 -8 c-92 -18 -170 27 -193 109
-19 71 12 147 72 178 30 16 111 21 147 9 16 -5 20 2 26 41 3 26 9 52 11 59 9
23 -122 40 -195 25z"/>
<path d="M2191 3899 c-117 -46 -178 -148 -169 -283 7 -105 49 -174 133 -219
34 -19 56 -22 150 -22 146 0 144 -1 132 73 -9 59 -10 60 -34 51 -67 -25 -169
6 -198 60 -27 52 -29 104 -7 154 29 65 60 82 151 82 l76 1 11 52 c9 39 9 54 0
59 -6 4 -51 9 -101 10 -73 3 -100 -1 -144 -18z"/>
<path d="M2530 3665 l0 -55 140 0 140 0 0 55 0 55 -140 0 -140 0 0 -55z"/>
</g>
</svg>
